{"title":"Little Big Soldier 2010 BluRay 720p ~ Kishan(Wall.e)","uid":7872001,"size":744380825,"categoryP":"video","categoryS":"hd___movies","magnet":"?xt=urn:btih:2a5a384bdd873e29e03f9ee31e59694d7d19ef35&amp;dn=Little+Big+Soldier+2010+BluRay+720p+%7E+Kishan%28Wall.e%29&amp;tr=udp%3A%2F%2Ftracker.openbittorrent.com%3A80&amp;tr=udp%3A%2F%2Fopen.demonii.com%3A1337&amp;tr=udp%3A%2F%2Ftracker.coppersurfer.tk%3A6969&amp;tr=udp%3A%2F%2Fexodus.desync.com%3A6969","seeders":0,"leechers":2,"uploader":"wall.e","files":11,"time":1354232956,"description":"Little Big Soldier 2010 BluRay 720p ~ Kishan(Wall.e)\n\nCover\n\n\nGeneral\nFormat                                   : Matroska\nFile size                                : 699 MiB\nDuration                                 : 1h 35mn\nOverall bit rate                         : 1 024 Kbps\nMovie name                               : Little Big Soldier 2010 BluRay 720p ~ Kishan(Wall.e)\n\nVideo\nID                                       : 1\nFormat                                   : AVC\nDuration                                 : 1h 35mn\nBit rate                                 : 900 Kbps\nWidth                                    : 1 280 pixels\nHeight                                   : 544 pixels\nDisplay aspect ratio                     : 2.35:1\nFrame rate                               : 24.000 fps\nStream size                              : 598 MiB (86%)\nTitle                                    : Little Big Soldier 2010 BluRay 720p ~ Kishan(Wall.e)\nLanguage                                 : English\n\nAudio\nID                                       : 2\nCodec ID/                                : MP3\nDuration                                 : 1h 35mn\nBit rate                                 : 128 Kbps\nChannel(s)                               : 2 channels\nStream size                              : 87.4 MiB (12%)\nTitle                                    : English Audio ~ Kishan(Wall.e)\nLanguage                                 : English\n\n\nScreenshots\n\nSample\nA Big Thanks To 3Li","torrent":{"xt":"urn:btih:2a5a384bdd873e29e03f9ee31e59694d7d19ef35","amp;dn":"Little+Big+Soldier+2010+BluRay+720p+%7E+Kishan%28Wall.e%29","amp;tr":["udp%3A%2F%2Ftracker.openbittorrent.com%3A80","udp%3A%2F%2Fopen.demonii.com%3A1337","udp%3A%2F%2Ftracker.coppersurfer.tk%3A6969","udp%3A%2F%2Fexodus.desync.com%3A6969"],"infoHash":"2a5a384bdd873e29e03f9ee31e59694d7d19ef35","infoHashBuffer":{"type":"Buffer","data":[42,90,56,75,221,135,62,41,224,63,158,227,30,89,105,77,125,25,239,53]},"announce":[],"urlList":[]}}